<svg width="40" height="40" viewBox="0 0 40 40" fill="none" xmlns="http://www.w3.org/2000/svg">
<path d="M36.2483 1.25671H3.74829C2.36758 1.25671 1.24829 2.376 1.24829 3.75671V36.2567C1.24829 37.6374 2.36758 38.7567 3.74829 38.7567H36.2483C37.629 38.7567 38.7483 37.6374 38.7483 36.2567V3.75671C38.7483 2.376 37.629 1.25671 36.2483 1.25671Z" stroke="#FACC15" stroke-width="2" stroke-linecap="round" stroke-linejoin="round"/>
<path d="M17.5 17.5V27.5C17.5 28.163 17.2366 28.7989 16.7678 29.2678C16.2989 29.7366 15.663 30 15 30H12.5" stroke="#FACC15" stroke-width="2" stroke-linecap="round" stroke-linejoin="round"/>
<path d="M27.5 17.5H25C24.337 17.5 23.7011 17.7634 23.2322 18.2322C22.7634 18.7011 22.5 19.337 22.5 20C22.5 23.75 27.5 23.75 27.5 27.5C27.5 28.163 27.2366 28.7989 26.7678 29.2678C26.2989 29.7366 25.663 30 25 30H22.5" stroke="#FACC15" stroke-width="2" stroke-linecap="round" stroke-linejoin="round"/>
</svg>
