<svg width="40" height="40" viewBox="0 0 40 40" fill="none" xmlns="http://www.w3.org/2000/svg">
<path d="M23.1667 25.8334C23.9692 26.9126 24.9951 27.806 26.1744 28.4526C27.3537 29.0992 28.6585 29.4838 30 29.5801C32.3206 29.5801 34.5462 28.6582 36.1872 27.0173C37.8281 25.3763 38.75 23.1507 38.75 20.8301C38.75 18.5094 37.8281 16.2838 36.1872 14.6429C34.5462 13.002 32.3206 12.0801 30 12.0801C23.75 12.0801 20 20.8301 20 20.8301C20 20.8301 16.25 29.5801 10 29.5801C7.67936 29.5801 5.45376 28.6582 3.81282 27.0173C2.17187 25.3763 1.25 23.1507 1.25 20.8301C1.25 18.5094 2.17187 16.2838 3.81282 14.6429C5.45376 13.002 7.67936 12.0801 10 12.0801C11.3418 12.1779 12.6468 12.5639 13.826 13.2116C15.0052 13.8593 16.0309 14.7535 16.8333 15.8334" stroke="#FACC15" stroke-width="2" stroke-linecap="round" stroke-linejoin="round"/>
</svg>
