<svg width="40" height="40" viewBox="0 0 40 40" fill="none" xmlns="http://www.w3.org/2000/svg">
<path d="M36.25 1.25H3.75C2.36929 1.25 1.25 2.36929 1.25 3.75V36.25C1.25 37.6307 2.36929 38.75 3.75 38.75H36.25C37.6307 38.75 38.75 37.6307 38.75 36.25V3.75C38.75 2.36929 37.6307 1.25 36.25 1.25Z" stroke="#FACC15" stroke-width="2" stroke-linecap="round" stroke-linejoin="round"/>
<path d="M18.5417 25.8333C22.5687 25.8333 25.8333 22.5687 25.8333 18.5417C25.8333 14.5146 22.5687 11.25 18.5417 11.25C14.5146 11.25 11.25 14.5146 11.25 18.5417C11.25 22.5687 14.5146 25.8333 18.5417 25.8333Z" stroke="#FACC15" stroke-width="2" stroke-linecap="round" stroke-linejoin="round"/>
<path d="M23.6983 23.6967L28.75 28.75" stroke="#FACC15" stroke-width="2" stroke-linecap="round" stroke-linejoin="round"/>
</svg>
