<svg width="40" height="40" viewBox="0 0 40 40" fill="none" xmlns="http://www.w3.org/2000/svg">
<path d="M27.2683 27.255L31.6883 38.745L34.34 34.3267L38.76 31.675L27.2683 27.255Z" stroke="#FACC15" stroke-width="2" stroke-linecap="round" stroke-linejoin="round"/>
<path d="M38.76 38.745L34.34 34.3267" stroke="#FACC15" stroke-width="2" stroke-linecap="round" stroke-linejoin="round"/>
<path d="M1.26001 6.24499C1.26001 4.91891 1.78679 3.64714 2.72448 2.70946C3.66216 1.77178 4.93393 1.245 6.26001 1.245" stroke="#FACC15" stroke-width="2" stroke-linecap="round" stroke-linejoin="round"/>
<path d="M6.26001 33.745C4.93393 33.745 3.66216 33.2182 2.72448 32.2805C1.78679 31.3428 1.26001 30.0711 1.26001 28.745" stroke="#FACC15" stroke-width="2" stroke-linecap="round" stroke-linejoin="round"/>
<path d="M28.76 1.245C30.0861 1.245 31.3579 1.77178 32.2955 2.70946C33.2332 3.64714 33.76 4.91891 33.76 6.24499" stroke="#FACC15" stroke-width="2" stroke-linecap="round" stroke-linejoin="round"/>
<path d="M33.76 21.245V13.745" stroke="#FACC15" stroke-width="2" stroke-linecap="round" stroke-linejoin="round"/>
<path d="M1.26001 21.245V13.745" stroke="#FACC15" stroke-width="2" stroke-linecap="round" stroke-linejoin="round"/>
<path d="M13.76 1.245H21.26" stroke="#FACC15" stroke-width="2" stroke-linecap="round" stroke-linejoin="round"/>
<path d="M13.76 33.745H21.26" stroke="#FACC15" stroke-width="2" stroke-linecap="round" stroke-linejoin="round"/>
</svg>
