<svg width="40" height="40" viewBox="0 0 40 40" fill="none" xmlns="http://www.w3.org/2000/svg">
<path d="M20 25C26.2132 25 31.25 19.9632 31.25 13.75C31.25 7.5368 26.2132 2.5 20 2.5C13.7868 2.5 8.75 7.5368 8.75 13.75C8.75 19.9632 13.7868 25 20 25Z" stroke="#FACC15" stroke-width="2" stroke-linecap="round" stroke-linejoin="round"/>
<path d="M12.5 37.5C18.7132 37.5 23.75 32.4632 23.75 26.25C23.75 20.0368 18.7132 15 12.5 15C6.2868 15 1.25 20.0368 1.25 26.25C1.25 32.4632 6.2868 37.5 12.5 37.5Z" stroke="#FACC15" stroke-width="2" stroke-linecap="round" stroke-linejoin="round"/>
<path d="M27.5 37.5C33.7132 37.5 38.75 32.4632 38.75 26.25C38.75 20.0368 33.7132 15 27.5 15C21.2868 15 16.25 20.0368 16.25 26.25C16.25 32.4632 21.2868 37.5 27.5 37.5Z" stroke="#FACC15" stroke-width="2" stroke-linecap="round" stroke-linejoin="round"/>
</svg>
