<svg width="40" height="40" viewBox="0 0 40 40" fill="none" xmlns="http://www.w3.org/2000/svg">
<path d="M8.75 23.7467V31.2467H1.25" stroke="#FACC15" stroke-width="2" stroke-linecap="round" stroke-linejoin="round"/>
<path d="M31.25 16.2467V8.7467H38.75" stroke="#FACC15" stroke-width="2" stroke-linecap="round" stroke-linejoin="round"/>
<path d="M31.72 8.7417C34.3061 11.436 35.8855 14.9387 36.1925 18.6607C36.4995 22.3826 35.5154 26.0968 33.4057 29.1784C31.296 32.2601 28.1894 34.5211 24.6084 35.5814C21.0275 36.6416 17.1907 36.4363 13.7433 35" stroke="#FACC15" stroke-width="2" stroke-linecap="round" stroke-linejoin="round"/>
<path d="M8.27827 31.2517C5.69773 28.556 4.12329 25.0546 3.8193 21.3352C3.51532 17.6159 4.50031 13.9053 6.60888 10.8264C8.71745 7.74747 11.8212 5.48783 15.3989 4.42689C18.9766 3.36594 22.8104 3.56831 26.2566 5" stroke="#FACC15" stroke-width="2" stroke-linecap="round" stroke-linejoin="round"/>
</svg>
