<svg width="2134" height="500" viewBox="0 0 2134 500" fill="none" xmlns="http://www.w3.org/2000/svg">
<path fill-rule="evenodd" clip-rule="evenodd" d="M448.773 71L448.773 412.333C448.773 423.931 456.214 433.333 465.394 433.333C474.573 433.333 482.015 423.931 482.015 412.333L482.015 71C482.015 59.402 474.573 50 465.394 50C456.214 50 448.773 59.402 448.773 71ZM0.00045466 71L0.00043974 412.333C0.000439233 423.931 7.442 433.333 16.6216 433.333C25.8013 433.333 33.2428 423.931 33.2428 412.333L33.2428 71C33.2428 59.402 25.8013 50 16.6216 50C7.44201 50 0.000455167 59.402 0.00045466 71ZM415.53 73.5166L415.53 426.484C415.53 470.893 378.035 505.219 335.84 499.344L127.57 470.345C92.7455 465.496 66.4852 434.173 66.4852 397.485L66.4852 102.516C66.4852 65.8279 92.7465 34.505 127.57 29.6557L335.84 0.656808C378.075 -5.22454 415.53 29.1462 415.53 73.5166Z" fill="#FFC806"/>
<path d="M912.1 363.425C913.654 367.458 914.43 371.182 914.43 374.594C914.43 382.661 911.789 389.332 906.506 394.607C901.224 399.571 895.164 402.053 888.328 402.053C882.734 402.053 877.607 400.346 872.946 396.934C868.595 393.521 865.177 388.867 862.691 382.972L838.453 326.658H699.549L675.311 383.437C673.136 389.332 669.718 393.986 665.056 397.399C660.706 400.502 655.889 402.053 650.607 402.053C642.527 402.053 636.312 399.881 631.962 395.537C627.922 391.194 625.902 385.299 625.902 377.852C625.902 375.06 626.368 372.112 627.301 369.01L743.364 90.7014C745.85 84.4961 749.579 79.687 754.551 76.2741C759.523 72.8611 765.117 71.4649 771.332 72.0855C776.925 72.0855 782.052 73.7919 786.714 77.2049C791.686 80.3075 795.259 84.8064 797.434 90.7014L912.1 363.425ZM815.613 273.138L768.535 164.234L722.389 273.138H815.613Z" fill="#0F172A"/>
<path d="M1069.03 146.084C1090.47 146.084 1109.89 151.669 1127.29 162.838C1144.7 173.697 1158.37 188.9 1168.31 208.447C1178.57 227.994 1183.69 250.178 1183.69 274.999C1183.69 299.82 1178.72 322.16 1168.78 342.017C1158.83 361.563 1145.16 376.921 1127.76 388.091C1110.67 398.95 1091.71 404.38 1070.89 404.38C1055.98 404.38 1041.84 401.432 1028.48 395.537C1015.43 389.332 1004.55 381.886 995.848 373.198V464.416C995.848 472.483 993.207 479.154 987.924 484.428C982.642 490.013 975.961 492.806 967.881 492.806C959.802 492.806 953.121 490.168 947.838 484.894C942.555 479.619 939.914 472.794 939.914 464.416V179.127C939.914 171.06 942.555 164.389 947.838 159.115C953.121 153.53 959.802 150.738 967.881 150.738C975.961 150.738 982.642 153.53 987.924 159.115C993.207 164.389 995.848 171.06 995.848 179.127V180.989C1003.31 171.681 1013.72 163.614 1027.08 156.788C1040.44 149.652 1054.42 146.084 1069.03 146.084ZM1062.04 353.186C1081.93 353.186 1098.24 345.74 1110.98 330.847C1123.72 315.954 1130.09 297.338 1130.09 274.999C1130.09 252.66 1123.72 234.199 1110.98 219.617C1098.55 204.724 1082.24 197.278 1062.04 197.278C1041.84 197.278 1025.37 204.724 1012.63 219.617C999.888 234.199 993.518 252.66 993.518 274.999C993.518 297.338 999.888 315.954 1012.63 330.847C1025.37 345.74 1041.84 353.186 1062.04 353.186Z" fill="#0F172A"/>
<path d="M1350.12 146.084C1371.56 146.084 1390.98 151.669 1408.39 162.838C1425.79 173.697 1439.46 188.9 1449.4 208.447C1459.66 227.994 1464.79 250.178 1464.79 274.999C1464.79 299.82 1459.81 322.16 1449.87 342.017C1439.93 361.563 1426.25 376.921 1408.85 388.091C1391.76 398.95 1372.81 404.38 1351.99 404.38C1337.07 404.38 1322.93 401.432 1309.57 395.537C1296.52 389.332 1285.64 381.886 1276.94 373.198V464.416C1276.94 472.483 1274.3 479.154 1269.02 484.428C1263.73 490.013 1257.05 492.806 1248.97 492.806C1240.89 492.806 1234.21 490.168 1228.93 484.894C1223.65 479.619 1221.01 472.794 1221.01 464.416V179.127C1221.01 171.06 1223.65 164.389 1228.93 159.115C1234.21 153.53 1240.89 150.738 1248.97 150.738C1257.05 150.738 1263.73 153.53 1269.02 159.115C1274.3 164.389 1276.94 171.06 1276.94 179.127V180.989C1284.4 171.681 1294.81 163.614 1308.17 156.788C1321.53 149.652 1335.52 146.084 1350.12 146.084ZM1343.13 353.186C1363.02 353.186 1379.33 345.74 1392.07 330.847C1404.81 315.954 1411.18 297.338 1411.18 274.999C1411.18 252.66 1404.81 234.199 1392.07 219.617C1379.64 204.724 1363.33 197.278 1343.13 197.278C1322.93 197.278 1306.46 204.724 1293.72 219.617C1280.98 234.199 1274.61 252.66 1274.61 274.999C1274.61 297.338 1280.98 315.954 1293.72 330.847C1306.46 345.74 1322.93 353.186 1343.13 353.186Z" fill="#0F172A"/>
<path d="M1725.84 269.414C1725.52 276.861 1722.57 282.911 1716.98 287.565C1711.39 292.219 1704.86 294.546 1697.4 294.546H1543.58C1547.31 312.852 1555.86 327.279 1569.22 337.828C1582.58 348.067 1597.65 353.186 1614.43 353.186C1627.17 353.186 1637.12 352.1 1644.26 349.928C1651.41 347.446 1657.01 344.964 1661.04 342.482C1665.4 339.69 1668.35 337.828 1669.9 336.897C1675.49 334.105 1680.78 332.709 1685.75 332.709C1692.27 332.709 1697.87 335.036 1702.53 339.69C1707.19 344.344 1709.52 349.773 1709.52 355.979C1709.52 364.356 1705.17 371.957 1696.47 378.783C1687.77 385.919 1676.12 391.969 1661.51 396.934C1646.91 401.898 1632.15 404.38 1617.23 404.38C1591.13 404.38 1568.29 398.95 1548.71 388.091C1529.44 377.232 1514.53 362.339 1503.96 343.413C1493.4 324.176 1488.11 302.613 1488.11 278.722C1488.11 252.04 1493.71 228.614 1504.89 208.447C1516.08 188.28 1530.84 172.922 1549.18 162.373C1567.51 151.513 1587.09 146.084 1607.91 146.084C1628.42 146.084 1647.68 151.669 1665.71 162.838C1684.04 174.008 1698.65 189.056 1709.52 207.982C1720.4 226.908 1725.84 247.386 1725.84 269.414ZM1607.91 197.278C1571.86 197.278 1550.57 214.187 1544.05 248.006H1666.17V244.748C1664.93 231.717 1658.56 220.548 1647.06 211.24C1635.56 201.932 1622.51 197.278 1607.91 197.278Z" fill="#0F172A"/>
<path d="M1871.77 146.084C1898.18 146.084 1919.47 150.272 1935.63 158.65C1951.78 166.716 1959.86 177.576 1959.86 191.227C1959.86 198.053 1957.84 204.104 1953.8 209.378C1949.76 214.342 1944.48 216.824 1937.96 216.824C1932.98 216.824 1928.94 216.204 1925.84 214.963C1922.73 213.411 1919.62 211.55 1916.51 209.378C1913.72 206.896 1910.92 204.879 1908.12 203.328C1905.02 201.777 1900.36 200.38 1894.14 199.139C1888.24 197.898 1883.42 197.278 1879.69 197.278C1856.39 197.278 1838.05 204.569 1824.69 219.151C1811.64 233.424 1805.11 252.195 1805.11 275.465C1805.11 297.804 1811.79 316.42 1825.16 331.312C1838.52 345.895 1855.61 353.186 1876.43 353.186C1891.66 353.186 1903 351.324 1910.46 347.601C1912.32 346.671 1914.81 345.119 1917.91 342.947C1921.33 340.465 1924.44 338.604 1927.24 337.363C1930.03 336.121 1933.45 335.501 1937.49 335.501C1945.26 335.501 1951.32 337.983 1955.67 342.947C1960.33 347.912 1962.66 354.272 1962.66 362.029C1962.66 369.475 1958.31 376.456 1949.61 382.972C1940.91 389.487 1929.41 394.762 1915.12 398.795C1900.82 402.518 1885.6 404.38 1869.44 404.38C1845.51 404.38 1824.38 398.795 1806.04 387.626C1788.02 376.456 1774.04 361.098 1764.09 341.551C1754.15 321.694 1749.18 299.665 1749.18 275.465C1749.18 250.333 1754.31 227.994 1764.56 208.447C1775.13 188.9 1789.73 173.697 1808.38 162.838C1827.02 151.669 1848.15 146.084 1871.77 146.084Z" fill="#0F172A"/>
<path d="M2113.99 347.136C2118.34 347.136 2122.22 349.308 2125.64 353.652C2129.37 357.685 2131.23 363.115 2131.23 369.94C2131.23 378.318 2126.57 385.454 2117.25 391.349C2108.24 396.934 2097.98 399.726 2086.48 399.726C2067.22 399.726 2050.9 395.693 2037.54 387.626C2024.49 379.248 2017.97 361.718 2017.97 335.036V206.586H1996.52C1989.07 206.586 1982.85 204.103 1977.88 199.139C1972.91 194.175 1970.42 187.97 1970.42 180.523C1970.42 173.387 1972.91 167.492 1977.88 162.838C1982.85 157.874 1989.07 155.392 1996.52 155.392H2017.97V125.606C2017.97 117.539 2020.61 110.869 2025.89 105.594C2031.48 100.009 2038.32 97.217 2046.4 97.217C2054.17 97.217 2060.69 100.009 2065.98 105.594C2071.26 110.869 2073.9 117.539 2073.9 125.606V155.392H2106.99C2114.45 155.392 2120.67 157.874 2125.64 162.838C2130.61 167.802 2133.1 174.008 2133.1 181.454C2133.1 188.59 2130.61 194.64 2125.64 199.605C2120.67 204.259 2114.45 206.586 2106.99 206.586H2073.9V332.709C2073.9 339.224 2075.61 344.033 2079.03 347.136C2082.44 349.928 2087.11 351.324 2093.01 351.324C2095.5 351.324 2098.91 350.704 2103.26 349.463C2106.99 347.912 2110.57 347.136 2113.99 347.136Z" fill="#0F172A"/>
</svg>
